<?xml version="1.0" encoding="UTF-8"?>
<svg width="296px" height="295px" viewBox="0 0 296 295" version="1.1" xmlns="http://www.w3.org/2000/svg" xmlns:xlink="http://www.w3.org/1999/xlink">
    <!-- Generator: Sketch 62 (91390) - https://sketch.com -->
    <title>Oval</title>
    <desc>Created with Sketch.</desc>
    <g id="Page-6" stroke="none" stroke-width="1" fill="none" fill-rule="evenodd" opacity="0.949079241">
        <g id="Group-6" transform="translate(-405.000000, -415.000000)" fill="#5916E8">
            <g id="Group-3" transform="translate(353.000000, 353.000000)">
                <g id="Group-36">
                    <g id="Group" transform="translate(52.800569, 62.625821)">
                        <path d="M147.127271,294.235186 C204.577174,294.235186 229.578066,277.530806 253.796775,229.511436 C263.828082,209.621975 294.235186,191.051672 294.235186,147.117593 C294.235186,127.74299 290.490217,109.243128 283.684711,92.3024857 C272.787509,65.1765697 262.420175,32.8789941 238.63878,16.5586901 C214.987937,0.327979774 177.978187,-3.15139927e-13 147.127271,-3.15139927e-13 C103.062003,-3.15139927e-13 43.0821211,34.6115358 21.2979961,59.4144382 C-1.45051299,85.315366 0.0189620526,109.934958 0.0193558893,147.117593 C0.0193558893,182.467082 18.2262905,182.467082 29.8176945,214.730353 C47.1993161,263.109993 92.014463,294.235186 147.127271,294.235186 Z" id="Oval"></path>
                    </g>
                </g>
            </g>
        </g>
    </g>
</svg>